<?xml version="1.0" encoding="UTF-8" standalone="no"?>
<svg
   width="1024"
   height="1024"
   viewBox="0 0 270.93334 270.93335"
   version="1.1"
   id="svg8"
   inkscape:version="1.1 (c68e22c387, 2021-05-23)"
   sodipodi:docname="HIHUN_logo_1.1.svg"
   inkscape:export-filename="H:\design\Hideaway - Logo Testing.png"
   inkscape:export-xdpi="96.000008"
   inkscape:export-ydpi="96.000008"
   xmlns:inkscape="http://www.inkscape.org/namespaces/inkscape"
   xmlns:sodipodi="http://sodipodi.sourceforge.net/DTD/sodipodi-0.dtd"
   xmlns="http://www.w3.org/2000/svg"
   xmlns:svg="http://www.w3.org/2000/svg"
   xmlns:rdf="http://www.w3.org/1999/02/22-rdf-syntax-ns#"
   xmlns:cc="http://creativecommons.org/ns#"
   xmlns:dc="http://purl.org/dc/elements/1.1/">
  <defs
     id="defs2">
    <inkscape:perspective
       sodipodi:type="inkscape:persp3d"
       inkscape:vp_x="0 : 135.46668 : 1"
       inkscape:vp_y="0 : 1000 : 0"
       inkscape:vp_z="270.93334 : 135.46668 : 1"
       inkscape:persp3d-origin="135.46667 : 90.311117 : 1"
       id="perspective1600" />
    <inkscape:path-effect
       effect="powerstroke"
       id="path-effect1582"
       is_visible="true"
       lpeversion="1"
       offset_points="0,0.1322915"
       sort_points="true"
       interpolator_type="CubicBezierJohan"
       interpolator_beta="0.2"
       start_linecap_type="zerowidth"
       linejoin_type="extrp_arc"
       miter_limit="4"
       scale_width="1"
       end_linecap_type="zerowidth" />
  </defs>
  <sodipodi:namedview
     id="base"
     pagecolor="#ababab"
     bordercolor="#666666"
     borderopacity="1.0"
     inkscape:pageopacity="0"
     inkscape:pageshadow="2"
     inkscape:zoom="0.70710678"
     inkscape:cx="434.87067"
     inkscape:cy="533.86562"
     inkscape:document-units="mm"
     inkscape:current-layer="layer3"
     inkscape:document-rotation="0"
     showgrid="false"
     inkscape:window-width="1920"
     inkscape:window-height="1017"
     inkscape:window-x="1358"
     inkscape:window-y="-8"
     inkscape:window-maximized="1"
     inkscape:snap-grids="false"
     inkscape:snap-to-guides="false"
     units="px"
     inkscape:pagecheckerboard="false" />
  <metadata
     id="metadata5">
    <rdf:RDF>
      <cc:Work
         rdf:about="">
        <dc:format>image/svg+xml</dc:format>
        <dc:type
           rdf:resource="http://purl.org/dc/dcmitype/StillImage" />
      </cc:Work>
    </rdf:RDF>
  </metadata>
  <g
     inkscape:groupmode="layer"
     id="layer8"
     inkscape:label="Layer 6"
     style="display:inline" />
  <g
     inkscape:groupmode="layer"
     id="layer7"
     inkscape:label="Layer 5"
     transform="translate(10.611374,-17.22605)"
     style="display:inline" />
  <g
     inkscape:groupmode="layer"
     id="layer4"
     inkscape:label="Layer 4"
     transform="translate(40.932006,11.412846)"
     style="display:inline" />
  <g
     inkscape:groupmode="layer"
     id="layer3"
     inkscape:label="Layer 3"
     transform="translate(40.932006,11.412846)">
    <path
       style="display:inline;fill:#299aff;fill-opacity:1;stroke-width:1.1;stroke:#000000;stroke-opacity:1;stroke-miterlimit:4;stroke-dasharray:none"
       d="m 106.29958,32.178649 c -3.48532,1.1e-5 -6.928466,0.16822 -10.320706,0.493873 a 98.870443,91.504569 0 0 1 93.747176,91.381298 98.870443,91.504569 0 0 1 -88.59704,91.00931 c 1.71252,0.0816 3.4361,0.12509 5.17057,0.12509 47.70687,3.5e-4 84.11579,-30.98831 92.5539,-72.51933 a 109.85604,101.67174 0 0 0 0.10221,-0.51804 c 0.0936,-0.47414 0.18302,-0.95017 0.26908,-1.42699 a 109.85604,101.67174 0 0 0 0.0154,-0.082 109.85604,101.67174 0 0 0 0.18742,-1.09178 c 0.0418,-0.25008 0.0829,-0.50054 0.12253,-0.75133 a 109.85604,101.67174 0 0 0 8.6e-4,-0.006 109.85604,101.67174 0 0 0 0.24978,-1.67498 c 0.0198,-0.14593 0.0404,-0.29203 0.0603,-0.43819 a 109.85604,101.67174 0 0 0 0.23502,-1.88514 c 0.0198,-0.17013 0.0394,-0.34026 0.0577,-0.51068 a 109.85604,101.67174 0 0 0 0.15094,-1.4974 c 0.0371,-0.40106 0.0726,-0.8027 0.10433,-1.20528 a 109.85604,101.67174 0 0 0 0.0624,-0.82069 109.85604,101.67174 0 0 0 0,-0.007 c 0.0415,-0.5869 0.0795,-1.17534 0.11011,-1.76536 a 109.85604,101.67174 0 0 0 0.0198,-0.41297 c 0.0339,-0.71388 0.0617,-1.4296 0.0795,-2.14785 a 109.85604,101.67174 0 0 0 0,-0.0125 c 4e-5,-8.6e-4 -1e-5,-0.003 0,-0.003 a 109.85604,101.67174 0 0 0 0,-0.004 c 0.0198,-0.78224 0.0295,-1.56663 0.0295,-2.35381 0,-0.77664 -0.0113,-1.55115 -0.0295,-2.32334 a 109.85604,101.67174 0 0 0 0,-0.0389 c -2.5e-4,-0.0112 -5.6e-4,-0.0224 -8.6e-4,-0.0336 -0.0176,-0.69747 -0.0446,-1.39221 -0.077,-2.08586 a 109.85604,101.67174 0 0 0 -0.0226,-0.45919 c -5.7e-4,-0.0108 -5.7e-4,-0.0217 -8.6e-4,-0.0326 -0.0295,-0.56258 -0.0653,-1.12346 -0.1046,-1.68339 a 109.85604,101.67174 0 0 0 -0.0601,-0.79967 109.85604,101.67174 0 0 0 -0.009,-0.0977 c -0.0304,-0.3815 -0.064,-0.76202 -0.0988,-1.14223 a 109.85604,101.67174 0 0 0 -0.004,-0.0452 109.85604,101.67174 0 0 0 -0.18609,-1.81265 109.85604,101.67174 0 0 0 -1.50441,-9.22083 109.85604,101.67174 0 0 0 -0.30768,-1.38706 c -0.12254,-0.52926 -0.24749,-1.05782 -0.37923,-1.58356 a 109.85604,101.67174 0 0 0 -0.0176,-0.0694 109.85604,101.67174 0 0 0 -0.0431,-0.17128 C 187.85102,61.561794 152.3346,32.178441 106.29829,32.178784 Z"
       id="path153"
       inkscape:export-filename="H:\design\Hideaway - Logo Testing.png"
       inkscape:export-xdpi="96.000008"
       inkscape:export-ydpi="96.000008" />
    <path
       style="fill:#ff7800;fill-opacity:1;stroke:#000000;stroke-width:1.1;stroke-miterlimit:4;stroke-dasharray:none;stroke-opacity:1"
       d="M 205.01065,128.00297 C 111.13896,122.56008 21.972775,132.3664 -33.695501,144.17715 30.718155,133.41411 125.87011,131.2564 195.26987,139.41939 Z"
       sodipodi:nodetypes="cccc"
       inkscape:export-filename="H:\design\Hideaway - Logo Testing.png"
       inkscape:export-xdpi="96.000008"
       inkscape:export-ydpi="96.000008"
       id="path1079" />
    <rect
       style="fill:#299aff;fill-opacity:1;fill-rule:evenodd;stroke-width:1.16312572;stroke:#000000;stroke-opacity:1;stroke-miterlimit:4;stroke-dasharray:none"
       id="rect10-8"
       width="31.388407"
       height="109.87039"
       x="123.25296"
       y="116.90379"
       transform="matrix(0.89440053,-0.44726691,0,1,0,0)"
       inkscape:export-filename="H:\design\Hideaway - Logo Testing.png"
       inkscape:export-xdpi="96.000008"
       inkscape:export-ydpi="96.000008" />
    <rect
       style="fill:#299aff;fill-opacity:1;fill-rule:evenodd;stroke-width:1.16312572;stroke:#000000;stroke-opacity:1;stroke-miterlimit:4;stroke-dasharray:none"
       id="rect10"
       width="31.388"
       height="109.87039"
       x="48.521858"
       y="114.85888"
       ry="0"
       transform="matrix(0.89440053,-0.44726691,0,1,0,0)"
       inkscape:export-filename="H:\design\Hideaway - Logo Testing.png"
       inkscape:export-xdpi="96.000008"
       inkscape:export-ydpi="96.000008" />
    <path
       style="display:inline;fill:#ff7800;fill-opacity:1;stroke:#000000;stroke-width:1.1;stroke-miterlimit:4;stroke-dasharray:none;stroke-opacity:1"
       d="M 223.82316,104.44805 C 145.52788,111.05699 50.656585,115.04136 -33.695501,144.17715 48.334568,121.27266 162.11319,119.87209 208.99477,121.1565 Z"
       inkscape:export-filename="H:\design\Hideaway - Logo Testing.png"
       inkscape:export-xdpi="96.000008"
       inkscape:export-ydpi="96.000008"
       id="rect1036"
       sodipodi:nodetypes="cccc" />
    <path
       style="fill:#ff7800;fill-opacity:1;stroke-width:1.1;stroke:#000000;stroke-opacity:1;stroke-miterlimit:4;stroke-dasharray:none"
       d="M 90.854836,22.381976 A 109.85604,101.67174 0 0 0 -19.001324,124.05382 109.85604,101.67174 0 0 0 90.854836,225.72567 109.85604,101.67174 0 0 0 101.45486,225.2507 C 42.795735,222.90835 -8.1243232,178.33498 -8.1242569,123.68289 -8.1243007,70.829733 39.499064,27.401411 95.689331,22.48075 a 109.85604,101.67174 0 0 0 -4.834495,-0.09876 z"
       id="path83"
       inkscape:export-filename="H:\design\Hideaway - Logo Testing.png"
       inkscape:export-xdpi="96.000008"
       inkscape:export-ydpi="96.000008" />
  </g>
  <g
     inkscape:groupmode="layer"
     id="layer2"
     inkscape:label="Layer 2"
     transform="translate(40.932006,11.412846)"
     style="display:inline" />
  <g
     inkscape:label="Layer 1"
     inkscape:groupmode="layer"
     id="layer1"
     transform="translate(40.932006,11.412846)" />
</svg>
